# xmcd CD database file
#
# Track frame offsets:
#	150
#	16592
#	27840
#	39870
#	53775
#	67615
#	79830
#	95495
#	110727
#	125592
#	140715
#	155752
#	172405
#	185172
#
# Disc length: 2620 seconds
#
# Revision: 0
# Processed by: cddbd v1.5.2PL0 Copyright (c) Steve Scherf et al.
# Submitted via: CDex 1.51
#
DISCID=be0a3a0e
DTITLE=Vários - Bailão and Forró
DYEAR=2006
DGENRE=Country
TTITLE0=Casa Cheia - Rio Negro and Solimões
TTITLE1=Derramaro o Gai - Limão com Mel and Terra Samba
TTITLE2=Atração Fatal - Roberta Miranda
TTITLE3=Sapatilha 37 - Guentaê!
TTITLE4=Rodopiou - Emilio and Eduardo
TTITLE5=Meu Xamego, Meu Xodó - Genildo and Ginaldo
TTITLE6=Lua, Sol e Forró - Edigar Mão Branca
TTITLE7=Fruta Fresca - Banda Cheiro de Amor
TTITLE8=Deixa a Chuva Derramar - Adalberto and Adriano
TTITLE9=Forró Desarmado - Os Filhos da Mãe
TTITLE10=Só Alegria - Rio Negro and Solimões
TTITLE11=Vamo Embolando - Banda Beijo
TTITLE12=Na Aba do Meu Chapéu - Chitãozinho and Chororó
TTITLE13=Forró do Poeirão - Elba Ramalho
EXTD=YEAR: 2006
EXTT0=
EXTT1=
EXTT2=
EXTT3=
EXTT4=
EXTT5=
EXTT6=
EXTT7=
EXTT8=
EXTT9=
EXTT10=
EXTT11=
EXTT12=
EXTT13=
PLAYORDER=
